<svg width="14" height="14" viewBox="0 0 14 14" fill="none" xmlns="http://www.w3.org/2000/svg">
<path d="M14 1.94463V13.2332C13.8196 13.8496 13.4264 14.0037 12.8781 14C8.93172 13.9927 4.98652 13.9914 1.04251 13.9963C0.920205 14.0002 0.797876 13.9892 0.678176 13.9633C0.24169 13.8496 0 13.501 0 12.9948V2.07304C0.0216439 1.55942 0.38959 1.18521 0.891008 1.16687H2.42412V1.32829C2.42412 1.7612 2.4133 2.19778 2.42773 2.63435C2.43494 2.80678 2.45658 2.99021 2.52873 3.1443C2.71631 3.55519 3.05901 3.73129 3.4991 3.72762C4.21335 3.72762 4.62097 3.31673 4.62097 2.59399V1.17421H9.48725V1.33196C9.49085 1.77221 9.48725 2.20878 9.49085 2.64903C9.49446 3.08927 9.68565 3.4378 10.0897 3.6249C10.3638 3.7533 10.6632 3.7423 10.9482 3.68727C11.4424 3.58821 11.6841 3.28371 11.6877 2.77376C11.6913 2.26381 11.6877 1.80889 11.6877 1.32829V1.17421C12.2036 1.17421 12.705 1.17054 13.2064 1.17788C13.3074 1.18154 13.4084 1.22557 13.5022 1.26959C13.7836 1.40534 13.9242 1.65114 14 1.94463ZM0.905437 13.0791H13.0946V4.78421H0.905437V13.0791Z" fill="#233966"/>
<path d="M2.87123 1.64372C2.87123 1.3062 2.86762 0.968676 2.87123 0.631155C2.87484 0.293635 3.09849 0.0294883 3.45923 0.0294883C3.56328 0.024965 3.66749 0.0335911 3.76945 0.0551691C3.99311 0.117537 4.12297 0.271623 4.16265 0.50642C4.16996 0.566052 4.17357 0.626092 4.17347 0.686186V2.61592C4.17708 2.86173 4.11576 3.08552 3.88489 3.19925C3.65402 3.31298 3.36904 3.32031 3.12374 3.17723C2.95059 3.07818 2.87123 2.90575 2.87123 2.7003V1.64372Z" fill="#233966"/>
<path d="M11.2404 1.64375V2.65631C11.2368 3.02685 11.0168 3.25431 10.6524 3.25431C10.5384 3.2599 10.4242 3.24878 10.3133 3.22129C10.1041 3.15893 9.98507 3.00484 9.949 2.78105C9.94169 2.72142 9.93808 2.66138 9.93818 2.60128C9.93818 1.95926 9.93818 1.31357 9.93457 0.671547C9.93457 0.422075 9.99229 0.201953 10.2268 0.0882234C10.3453 0.0267053 10.4771 -0.00352028 10.6101 0.000326177C10.7431 0.00417264 10.873 0.0419676 10.9879 0.110236C11.1575 0.205622 11.2368 0.374382 11.2368 0.572492C11.2404 0.928356 11.2404 1.28789 11.2404 1.64375Z" fill="#233966"/>
<path d="M3.01948 12.2023H2.28358C2.12847 12.2023 2.09961 12.1693 2.09961 12.0115V10.7348C2.09961 10.5771 2.12847 10.5477 2.28358 10.5477C2.77177 10.5428 3.25876 10.5428 3.74455 10.5477C3.90688 10.5477 3.93573 10.5808 3.93573 10.7422V12.0079C3.93573 12.1693 3.90327 12.2023 3.74455 12.2023H3.01948Z" fill="#233966"/>
<path d="M5.63843 10.5477C5.88372 10.5477 6.13263 10.5441 6.37793 10.5477C6.52943 10.5477 6.5619 10.5844 6.5619 10.7348V12.0152C6.5619 12.1656 6.52583 12.2023 6.37432 12.2023H4.89893C4.77267 12.206 4.72217 12.151 4.72217 12.0189C4.72578 11.5896 4.72578 11.1567 4.72217 10.7275C4.72217 10.5954 4.77628 10.5441 4.90253 10.5441L5.63843 10.5477Z" fill="#233966"/>
<path d="M8.25719 12.2024H7.53212C7.38061 12.2024 7.34814 12.1694 7.34814 12.0153V10.735C7.34814 10.5809 7.38061 10.5479 7.53212 10.5479H9.00751C9.13377 10.5479 9.18788 10.5992 9.18788 10.7313C9.18427 11.1642 9.18427 11.5934 9.18788 12.0227C9.18788 12.1547 9.13377 12.2098 9.00751 12.2061C8.75861 12.1988 8.50609 12.2024 8.25719 12.2024Z" fill="#233966"/>
<path d="M10.8906 12.2024C10.6453 12.2024 10.4 12.1988 10.1547 12.2024C10.0284 12.2061 9.97069 12.1547 9.9743 12.0227C9.97791 11.5861 9.97791 11.1532 9.9743 10.7166C9.97069 10.5992 10.0212 10.5479 10.1366 10.5479H11.6517C11.7635 10.5479 11.814 10.6029 11.814 10.7203C11.8104 11.1532 11.8104 11.5898 11.814 12.0263C11.814 12.1584 11.7527 12.2061 11.6301 12.2024C11.3812 12.1988 11.1359 12.2024 10.8906 12.2024Z" fill="#233966"/>
<path d="M8.25719 5.9104H9.00751C9.13377 5.9104 9.18788 5.95809 9.18788 6.09017C9.18427 6.52307 9.18427 6.95231 9.18788 7.38155C9.18788 7.51362 9.13377 7.56499 9.00751 7.56499H7.51769C7.39865 7.56865 7.34814 7.51729 7.34814 7.39256C7.35175 6.95598 7.35175 6.52307 7.34814 6.0865C7.34814 5.96176 7.39865 5.91407 7.5213 5.91407L8.25719 5.9104Z" fill="#233966"/>
<path d="M10.8942 7.56132C10.6453 7.56132 10.3963 7.55765 10.1438 7.56132C10.0248 7.56498 9.97068 7.51362 9.97429 7.38889C9.9779 6.95598 9.9779 6.5194 9.97429 6.08283C9.97068 5.95809 10.0248 5.9104 10.1438 5.9104H11.6337C11.7563 5.9104 11.814 5.95809 11.814 6.09017C11.8104 6.5194 11.8104 6.95231 11.814 7.38155C11.814 7.51362 11.7599 7.56499 11.6337 7.56499C11.3884 7.55765 11.1431 7.56132 10.8942 7.56132Z" fill="#233966"/>
<path d="M3.01919 8.22968H3.76952C3.88495 8.22601 3.93906 8.27737 3.93906 8.39477C3.93545 8.83501 3.93545 9.27526 3.93906 9.71183C3.93906 9.8329 3.88856 9.88059 3.77312 9.88059C3.2681 9.8757 2.76307 9.8757 2.25805 9.88059C2.13901 9.88059 2.09572 9.82556 2.09933 9.70816V8.4021C2.09572 8.28104 2.14622 8.22601 2.26887 8.22968H3.01919Z" fill="#233966"/>
<path d="M5.63121 9.88058C5.38591 9.88058 5.13701 9.87691 4.89171 9.88058C4.76906 9.88425 4.72217 9.82922 4.72217 9.70448C4.72578 9.27158 4.72578 8.835 4.72217 8.40209C4.72217 8.27369 4.77628 8.22966 4.89532 8.22966H6.38514C6.51501 8.226 6.56551 8.28103 6.5619 8.40943C6.55829 8.84234 6.55829 9.27158 6.5619 9.70448C6.56551 9.83656 6.50418 9.88425 6.38153 9.88058C6.13263 9.87691 5.88012 9.88058 5.63121 9.88058Z" fill="#233966"/>
<path d="M8.2644 8.22968H9.01473C9.13737 8.22601 9.18788 8.28104 9.18788 8.4021C9.18427 8.83868 9.18427 9.27526 9.18788 9.70816C9.18788 9.82556 9.14459 9.88059 9.02915 9.88059C8.52052 9.88059 8.0155 9.87692 7.51047 9.88059C7.39865 9.88059 7.34814 9.8329 7.34814 9.7155C7.35055 9.27526 7.35055 8.83501 7.34814 8.39477C7.34814 8.27737 7.39865 8.22601 7.51408 8.22968H8.2644Z" fill="#233966"/>
<path d="M10.894 8.22873H11.6299C11.7561 8.22506 11.8139 8.27275 11.8139 8.40482C11.8102 8.8414 11.8102 9.27431 11.8139 9.71088C11.8139 9.82828 11.7634 9.87964 11.6479 9.87964H10.1328C10.0282 9.87964 9.97412 9.83929 9.97412 9.72189V8.39015C9.97412 8.26908 10.0282 8.22506 10.1401 8.22873H10.894Z" fill="#233966"/>
</svg>
